<?xml version="1.0" standalone="no"?>
<!DOCTYPE svg PUBLIC "-//W3C//DTD SVG 20010904//EN"
 "http://www.w3.org/TR/2001/REC-SVG-20010904/DTD/svg10.dtd">
<svg version="1.0" xmlns="http://www.w3.org/2000/svg"
 width="200.000000pt" height="200.000000pt" viewBox="0 0 200.000000 200.000000"
 preserveAspectRatio="xMidYMid meet">
<metadata>
Created by potrace 1.14, written by Peter Selinger 2001-2017
</metadata>
<g transform="translate(0.000000,200.000000) scale(0.100000,-0.100000)"
fill="#000000" stroke="none">
<path d="M1258 1933 c21 -8 13 -20 -36 -52 -31 -20 -63 -32 -88 -32 -33 -2
-35 -3 -9 -6 186 -26 418 -165 540 -325 365 -480 134 -1163 -450 -1330 -66
-19 -104 -22 -220 -22 -167 0 -225 13 -370 84 -171 83 -301 212 -385 384 -63
128 -83 217 -84 376 0 74 3 149 7 165 l7 30 -15 -25 c-8 -14 -15 -20 -15 -15
0 6 -5 2 -11 -7 -5 -10 -17 -18 -24 -18 -8 0 -15 -5 -15 -12 0 -6 -3 -8 -7 -5
-3 4 -12 -1 -19 -11 -11 -14 -15 -15 -23 -3 -6 9 -11 -10 -16 -60 -14 -155 44
-393 133 -544 64 -109 228 -273 339 -338 329 -196 751 -179 1063 41 95 68 146
117 213 207 202 271 250 594 137 923 -88 260 -327 495 -589 581 -58 19 -96 28
-63 14z"/>
<path d="M1150 1400 l0 -130 130 0 130 0 0 130 0 130 -130 0 -130 0 0 -130z"/>
<path d="M870 1135 l0 -135 130 0 130 0 0 135 0 135 -130 0 -130 0 0 -135z"/>
<path d="M870 855 l0 -135 130 0 130 0 0 135 0 135 -130 0 -130 0 0 -135z"/>
<path d="M590 585 l0 -135 130 0 130 0 0 135 0 135 -130 0 -130 0 0 -135z"/>
</g>
</svg>
